<svg xmlns="http://www.w3.org/2000/svg" viewBox="0 0 1420 980" width="1420" height="980">
<defs><linearGradient id="sky" x1="0" y1="0" x2="0" y2="1"><stop offset="0" stop-color="#e8f1f7"/><stop offset="1" stop-color="#fdfdfb"/></linearGradient><linearGradient id="gnd" x1="0" y1="0" x2="0" y2="1"><stop offset="0" stop-color="#e3ead6"/><stop offset="1" stop-color="#d3ddc4"/></linearGradient></defs>
<rect width="1420" height="980" fill="url(#sky)"/>
<polygon points="-203.5,348.0 1091.0,1095.4 1616.5,792.0 322.0,44.6" fill="url(#gnd)" />
<polygon points="142.7,378.2 1028.2,889.5 1398.4,706.0 512.9,194.7" fill="#31404d" opacity="0.13" />
<polygon points="345.0,153.4 409.1,190.4 345.0,227.4 281.0,190.4" fill="#a59f95" />
<polygon points="281.0,190.4 345.0,227.4 345.0,249.6 281.0,212.6" fill="#88837b" />
<polygon points="345.0,249.6 409.1,212.6 409.1,190.4 345.0,227.4" fill="#5f5c56" />
<polygon points="488.5,236.2 552.6,273.2 488.5,310.2 424.5,273.2" fill="#a59f95" />
<polygon points="424.5,273.2 488.5,310.2 488.5,332.4 424.5,295.4" fill="#88837b" />
<polygon points="488.5,332.4 552.6,295.4 552.6,273.2 488.5,310.2" fill="#5f5c56" />
<polygon points="636.6,321.7 700.7,358.7 636.6,395.7 572.5,358.7" fill="#a59f95" />
<polygon points="572.5,358.7 636.6,395.7 636.6,417.9 572.5,380.9" fill="#88837b" />
<polygon points="636.6,417.9 700.7,380.9 700.7,358.7 636.6,395.7" fill="#5f5c56" />
<polygon points="52.8,322.1 116.9,359.1 52.8,396.1 -11.3,359.1" fill="#a59f95" />
<polygon points="-11.3,359.1 52.8,396.1 52.8,418.3 -11.3,381.3" fill="#88837b" />
<polygon points="52.8,418.3 116.9,381.3 116.9,359.1 52.8,396.1" fill="#5f5c56" />
<polygon points="196.3,404.9 260.4,441.9 196.3,478.9 132.2,441.9" fill="#a59f95" />
<polygon points="132.2,441.9 196.3,478.9 196.3,501.1 132.2,464.1" fill="#88837b" />
<polygon points="196.3,501.1 260.4,464.1 260.4,441.9 196.3,478.9" fill="#5f5c56" />
<polygon points="784.6,407.2 848.7,444.2 784.6,481.2 720.5,444.2" fill="#a59f95" />
<polygon points="720.5,444.2 784.6,481.2 784.6,503.4 720.5,466.4" fill="#88837b" />
<polygon points="784.6,503.4 848.7,466.4 848.7,444.2 784.6,481.2" fill="#5f5c56" />
<polygon points="344.3,490.4 408.4,527.4 344.3,564.4 280.3,527.4" fill="#a59f95" />
<polygon points="280.3,527.4 344.3,564.4 344.3,586.6 280.3,549.6" fill="#88837b" />
<polygon points="344.3,586.6 408.4,549.6 408.4,527.4 344.3,564.4" fill="#5f5c56" />
<polygon points="932.7,492.6 996.7,529.6 932.7,566.6 868.6,529.6" fill="#a59f95" />
<polygon points="868.6,529.6 932.7,566.6 932.7,588.8 868.6,551.8" fill="#88837b" />
<polygon points="932.7,588.8 996.7,551.8 996.7,529.6 932.7,566.6" fill="#5f5c56" />
<polygon points="492.4,575.9 556.5,612.9 492.4,649.9 428.3,612.9" fill="#a59f95" />
<polygon points="428.3,612.9 492.4,649.9 492.4,672.1 428.3,635.1" fill="#88837b" />
<polygon points="492.4,672.1 556.5,635.1 556.5,612.9 492.4,649.9" fill="#5f5c56" />
<polygon points="1080.7,578.1 1144.8,615.1 1080.7,652.1 1016.6,615.1" fill="#a59f95" />
<polygon points="1016.6,615.1 1080.7,652.1 1080.7,674.3 1016.6,637.3" fill="#88837b" />
<polygon points="1080.7,674.3 1144.8,637.3 1144.8,615.1 1080.7,652.1" fill="#5f5c56" />
<polygon points="1224.2,660.9 1288.3,697.9 1224.2,734.9 1160.1,697.9" fill="#a59f95" />
<polygon points="1160.1,697.9 1224.2,734.9 1224.2,757.1 1160.1,720.1" fill="#88837b" />
<polygon points="1224.2,757.1 1288.3,720.1 1288.3,697.9 1224.2,734.9" fill="#5f5c56" />
<polygon points="640.4,661.4 704.5,698.4 640.4,735.4 576.3,698.4" fill="#a59f95" />
<polygon points="576.3,698.4 640.4,735.4 640.4,757.6 576.3,720.6" fill="#88837b" />
<polygon points="640.4,757.6 704.5,720.6 704.5,698.4 640.4,735.4" fill="#5f5c56" />
<polygon points="788.5,746.8 852.5,783.8 788.5,820.8 724.4,783.8" fill="#a59f95" />
<polygon points="724.4,783.8 788.5,820.8 788.5,843.0 724.4,806.0" fill="#88837b" />
<polygon points="788.5,843.0 852.5,806.0 852.5,783.8 788.5,820.8" fill="#5f5c56" />
<polygon points="931.9,829.7 996.0,866.7 931.9,903.7 867.9,866.7" fill="#a59f95" />
<polygon points="867.9,866.7 931.9,903.7 931.9,925.9 867.9,888.9" fill="#88837b" />
<polygon points="931.9,925.9 996.0,888.9 996.0,866.7 931.9,903.7" fill="#5f5c56" />
<polygon points="351.5,175.6 357.9,179.3 46.4,359.1 40.0,355.4" fill="#babec4" />
<polygon points="46.4,366.5 357.9,186.7 357.9,179.3 46.4,359.1" fill="#6b6d71" />
<polygon points="40.0,355.4 46.4,359.1 46.4,366.5 40.0,362.8" fill="#999da2" />
<polygon points="192.5,169.3 198.9,173.0 198.9,271.0 192.5,267.3" fill="#999da2" />
<polygon points="198.9,271.0 205.3,267.3 205.3,169.3 198.9,173.0" fill="#6b6d71" />
<polygon points="198.9,165.6 205.3,169.3 198.9,173.0 192.5,169.3" fill="#babec4" />
<polygon points="40.0,288.8 46.4,292.5 46.4,359.1 40.0,355.4" fill="#999da2" />
<polygon points="46.4,359.1 52.8,355.4 52.8,288.8 46.4,292.5" fill="#6b6d71" />
<polygon points="46.4,285.1 52.8,288.8 46.4,292.5 40.0,288.8" fill="#babec4" />
<polygon points="345.0,49.8 351.5,53.5 351.5,183.0 345.0,179.3" fill="#999da2" />
<polygon points="351.5,183.0 357.9,179.3 357.9,49.8 351.5,53.5" fill="#6b6d71" />
<polygon points="351.5,46.1 357.9,49.8 351.5,53.5 345.0,49.8" fill="#babec4" />
<polygon points="41.3,297.2 363.0,45.1 363.0,37.6 41.3,289.6" fill="#6b6d71" />
<polygon points="356.6,33.9 363.0,37.6 41.3,289.6 34.9,285.9" fill="#c1c5cc" />
<polygon points="34.9,285.9 41.3,289.6 41.3,297.2 34.9,293.5" fill="#999da2" />
<polygon points="494.9,258.4 501.4,262.1 189.9,441.9 183.5,438.2" fill="#babec4" />
<polygon points="189.9,449.3 501.4,269.5 501.4,262.1 189.9,441.9" fill="#6b6d71" />
<polygon points="183.5,438.2 189.9,441.9 189.9,449.3 183.5,445.6" fill="#999da2" />
<polygon points="336.0,252.1 342.4,255.8 342.4,353.9 336.0,350.2" fill="#999da2" />
<polygon points="342.4,353.9 348.8,350.2 348.8,252.1 342.4,255.8" fill="#6b6d71" />
<polygon points="342.4,248.4 348.8,252.1 342.4,255.8 336.0,252.1" fill="#babec4" />
<polygon points="183.5,371.6 189.9,375.3 189.9,441.9 183.5,438.2" fill="#999da2" />
<polygon points="189.9,441.9 196.3,438.2 196.3,371.6 189.9,375.3" fill="#6b6d71" />
<polygon points="189.9,367.9 196.3,371.6 189.9,375.3 183.5,371.6" fill="#babec4" />
<polygon points="488.5,132.6 494.9,136.3 494.9,265.8 488.5,262.1" fill="#999da2" />
<polygon points="494.9,265.8 501.4,262.1 501.4,132.6 494.9,136.3" fill="#6b6d71" />
<polygon points="494.9,128.9 501.4,132.6 494.9,136.3 488.5,132.6" fill="#babec4" />
<polygon points="184.8,380.0 506.5,127.9 506.5,120.4 184.8,372.5" fill="#6b6d71" />
<polygon points="500.1,116.7 506.5,120.4 184.8,372.5 178.4,368.8" fill="#c1c5cc" />
<polygon points="178.4,368.8 184.8,372.5 184.8,380.0 178.4,376.3" fill="#999da2" />
<polygon points="643.0,343.9 649.4,347.6 337.9,527.4 331.5,523.7" fill="#babec4" />
<polygon points="337.9,534.8 649.4,355.0 649.4,347.6 337.9,527.4" fill="#6b6d71" />
<polygon points="331.5,523.7 337.9,527.4 337.9,534.8 331.5,531.1" fill="#999da2" />
<polygon points="484.1,337.6 490.5,341.3 490.5,439.4 484.1,435.7" fill="#999da2" />
<polygon points="490.5,439.4 496.9,435.7 496.9,337.6 490.5,341.3" fill="#6b6d71" />
<polygon points="490.5,333.9 496.9,337.6 490.5,341.3 484.1,337.6" fill="#babec4" />
<polygon points="331.5,457.1 337.9,460.8 337.9,527.4 331.5,523.7" fill="#999da2" />
<polygon points="337.9,527.4 344.3,523.7 344.3,457.1 337.9,460.8" fill="#6b6d71" />
<polygon points="337.9,453.4 344.3,457.1 337.9,460.8 331.5,457.1" fill="#babec4" />
<polygon points="636.6,218.1 643.0,221.8 643.0,351.3 636.6,347.6" fill="#999da2" />
<polygon points="643.0,351.3 649.4,347.6 649.4,218.1 643.0,221.8" fill="#6b6d71" />
<polygon points="643.0,214.4 649.4,218.1 643.0,221.8 636.6,218.1" fill="#babec4" />
<polygon points="332.8,465.5 654.5,213.4 654.5,205.9 332.8,457.9" fill="#6b6d71" />
<polygon points="648.1,202.2 654.5,205.9 332.8,457.9 326.4,454.2" fill="#c1c5cc" />
<polygon points="326.4,454.2 332.8,457.9 332.8,465.5 326.4,461.8" fill="#999da2" />
<polygon points="791.0,429.4 797.4,433.1 486.0,612.9 479.6,609.2" fill="#babec4" />
<polygon points="486.0,620.3 797.4,440.5 797.4,433.1 486.0,612.9" fill="#6b6d71" />
<polygon points="479.6,609.2 486.0,612.9 486.0,620.3 479.6,616.6" fill="#999da2" />
<polygon points="632.1,423.1 638.5,426.8 638.5,524.8 632.1,521.1" fill="#999da2" />
<polygon points="638.5,524.8 644.9,521.1 644.9,423.1 638.5,426.8" fill="#6b6d71" />
<polygon points="638.5,419.4 644.9,423.1 638.5,426.8 632.1,423.1" fill="#babec4" />
<polygon points="479.6,542.6 486.0,546.3 486.0,612.9 479.6,609.2" fill="#999da2" />
<polygon points="486.0,612.9 492.4,609.2 492.4,542.6 486.0,546.3" fill="#6b6d71" />
<polygon points="486.0,538.9 492.4,542.6 486.0,546.3 479.6,542.6" fill="#babec4" />
<polygon points="784.6,303.6 791.0,307.3 791.0,436.8 784.6,433.1" fill="#999da2" />
<polygon points="791.0,436.8 797.4,433.1 797.4,303.6 791.0,307.3" fill="#6b6d71" />
<polygon points="791.0,299.9 797.4,303.6 791.0,307.3 784.6,303.6" fill="#babec4" />
<polygon points="480.8,551.0 802.6,298.9 802.6,291.3 480.8,543.4" fill="#6b6d71" />
<polygon points="796.1,287.6 802.6,291.3 480.8,543.4 474.4,539.7" fill="#c1c5cc" />
<polygon points="474.4,539.7 480.8,543.4 480.8,551.0 474.4,547.3" fill="#999da2" />
<polygon points="939.1,514.8 945.5,518.5 634.0,698.4 627.6,694.7" fill="#babec4" />
<polygon points="634.0,705.8 945.5,525.9 945.5,518.5 634.0,698.4" fill="#6b6d71" />
<polygon points="627.6,694.7 634.0,698.4 634.0,705.8 627.6,702.1" fill="#999da2" />
<polygon points="780.1,508.5 786.5,512.2 786.5,610.3 780.1,606.6" fill="#999da2" />
<polygon points="786.5,610.3 792.9,606.6 792.9,508.5 786.5,512.2" fill="#6b6d71" />
<polygon points="786.5,504.8 792.9,508.5 786.5,512.2 780.1,508.5" fill="#babec4" />
<polygon points="627.6,628.1 634.0,631.8 634.0,698.4 627.6,694.7" fill="#999da2" />
<polygon points="634.0,698.4 640.4,694.7 640.4,628.1 634.0,631.8" fill="#6b6d71" />
<polygon points="634.0,624.4 640.4,628.1 634.0,631.8 627.6,628.1" fill="#babec4" />
<polygon points="932.7,389.0 939.1,392.7 939.1,522.2 932.7,518.5" fill="#999da2" />
<polygon points="939.1,522.2 945.5,518.5 945.5,389.0 939.1,392.7" fill="#6b6d71" />
<polygon points="939.1,385.3 945.5,389.0 939.1,392.7 932.7,389.0" fill="#babec4" />
<polygon points="628.9,636.4 950.6,384.4 950.6,376.8 628.9,628.9" fill="#6b6d71" />
<polygon points="944.2,373.1 950.6,376.8 628.9,628.9 622.5,625.2" fill="#c1c5cc" />
<polygon points="622.5,625.2 628.9,628.9 628.9,636.4 622.5,632.7" fill="#999da2" />
<polygon points="1087.1,600.3 1093.5,604.0 782.1,783.8 775.6,780.1" fill="#babec4" />
<polygon points="782.1,791.2 1093.5,611.4 1093.5,604.0 782.1,783.8" fill="#6b6d71" />
<polygon points="775.6,780.1 782.1,783.8 782.1,791.2 775.6,787.5" fill="#999da2" />
<polygon points="928.2,594.0 934.6,597.7 934.6,695.8 928.2,692.1" fill="#999da2" />
<polygon points="934.6,695.8 941.0,692.1 941.0,594.0 934.6,597.7" fill="#6b6d71" />
<polygon points="934.6,590.3 941.0,594.0 934.6,597.7 928.2,594.0" fill="#babec4" />
<polygon points="775.6,713.5 782.1,717.2 782.1,783.8 775.6,780.1" fill="#999da2" />
<polygon points="782.1,783.8 788.5,780.1 788.5,713.5 782.1,717.2" fill="#6b6d71" />
<polygon points="782.1,709.8 788.5,713.5 782.1,717.2 775.6,713.5" fill="#babec4" />
<polygon points="1080.7,474.5 1087.1,478.2 1087.1,607.7 1080.7,604.0" fill="#999da2" />
<polygon points="1087.1,607.7 1093.5,604.0 1093.5,474.5 1087.1,478.2" fill="#6b6d71" />
<polygon points="1087.1,470.8 1093.5,474.5 1087.1,478.2 1080.7,474.5" fill="#babec4" />
<polygon points="776.9,721.9 1098.6,469.8 1098.6,462.3 776.9,714.4" fill="#6b6d71" />
<polygon points="1092.2,458.6 1098.6,462.3 776.9,714.4 770.5,710.7" fill="#c1c5cc" />
<polygon points="770.5,710.7 776.9,714.4 776.9,721.9 770.5,718.2" fill="#999da2" />
<polygon points="1230.6,683.1 1237.0,686.8 925.5,866.7 919.1,863.0" fill="#babec4" />
<polygon points="925.5,874.1 1237.0,694.2 1237.0,686.8 925.5,866.7" fill="#6b6d71" />
<polygon points="919.1,863.0 925.5,866.7 925.5,874.1 919.1,870.4" fill="#999da2" />
<polygon points="1071.7,676.9 1078.1,680.6 1078.1,778.6 1071.7,774.9" fill="#999da2" />
<polygon points="1078.1,778.6 1084.5,774.9 1084.5,676.9 1078.1,680.6" fill="#6b6d71" />
<polygon points="1078.1,673.2 1084.5,676.9 1078.1,680.6 1071.7,676.9" fill="#babec4" />
<polygon points="919.1,796.4 925.5,800.1 925.5,866.7 919.1,863.0" fill="#999da2" />
<polygon points="925.5,866.7 931.9,863.0 931.9,796.4 925.5,800.1" fill="#6b6d71" />
<polygon points="925.5,792.7 931.9,796.4 925.5,800.1 919.1,796.4" fill="#babec4" />
<polygon points="1224.2,557.3 1230.6,561.0 1230.6,690.5 1224.2,686.8" fill="#999da2" />
<polygon points="1230.6,690.5 1237.0,686.8 1237.0,557.3 1230.6,561.0" fill="#6b6d71" />
<polygon points="1230.6,553.6 1237.0,557.3 1230.6,561.0 1224.2,557.3" fill="#babec4" />
<polygon points="920.4,804.7 1242.1,552.7 1242.1,545.1 920.4,797.2" fill="#6b6d71" />
<polygon points="1235.7,541.4 1242.1,545.1 920.4,797.2 914.0,793.5" fill="#c1c5cc" />
<polygon points="914.0,793.5 920.4,797.2 920.4,804.7 914.0,801.0" fill="#999da2" />
<polygon points="277.1,77.6 1178.0,597.7 1178.0,605.1 277.1,85.0" fill="#8c9096" />
<polygon points="283.5,73.9 1184.4,594.0 1178.0,597.7 277.1,77.6" fill="#a9afb6" />
<polygon points="1178.0,605.1 1184.4,601.4 1184.4,594.0 1178.0,597.7" fill="#616469" />
<polygon points="184.6,150.1 1085.5,670.2 1085.5,677.6 184.6,157.5" fill="#8c9096" />
<polygon points="191.0,146.4 1091.9,666.5 1085.5,670.2 184.6,150.1" fill="#a9afb6" />
<polygon points="1085.5,677.6 1091.9,673.9 1091.9,666.5 1085.5,670.2" fill="#616469" />
<polygon points="92.2,222.5 993.1,742.7 993.1,750.1 92.2,229.9" fill="#8c9096" />
<polygon points="98.6,218.8 999.5,739.0 993.1,742.7 92.2,222.5" fill="#a9afb6" />
<polygon points="993.1,750.1 999.5,746.4 999.5,739.0 993.1,742.7" fill="#616469" />
<polygon points="351.3,24.9 496.7,108.8 185.5,352.6 40.1,268.7" fill="#c0c4ca" />
<polygon points="185.5,357.1 496.7,113.2 496.7,108.8 185.5,352.6" fill="#6a6d70" />
<polygon points="40.1,268.7 185.5,352.6 185.5,357.1 40.1,273.1" fill="#989ca1" />
<polygon points="40.1,268.7 185.5,352.6 496.7,108.8 351.3,24.9" fill="#16305b" stroke="#ccd2d8" stroke-width="2.2" stroke-linejoin="round" />
<path d="M64.4,282.7L375.6,38.8M88.6,296.7L399.8,52.8M112.8,310.7L424.0,66.8M137.0,324.6L448.2,80.8M161.3,338.6L472.5,94.8M66.1,248.4L211.4,332.3M92.0,228.1L237.3,312.0M117.9,207.7L263.3,291.7M143.9,187.4L289.2,271.3M169.8,167.1L315.1,251.0M195.7,146.8L341.1,230.7M221.7,126.5L367.0,210.4M247.6,106.1L392.9,190.1M273.5,85.8L418.9,169.7M299.5,65.5L444.8,149.4M325.4,45.2L470.7,129.1" stroke="#33507e" stroke-width="0.9" fill="none" opacity="0.85"/>
<polygon points="47.4,272.9 83.7,293.9 377.5,40.0 354.2,26.5" fill="#ffffff" opacity="0.07" />
<polygon points="499.4,110.3 644.7,194.2 333.5,438.1 188.2,354.2" fill="#c0c4ca" />
<polygon points="333.5,442.5 644.7,198.7 644.7,194.2 333.5,438.1" fill="#6a6d70" />
<polygon points="188.2,354.2 333.5,438.1 333.5,442.5 188.2,358.6" fill="#989ca1" />
<polygon points="188.2,354.2 333.5,438.1 644.7,194.2 499.4,110.3" fill="#16305b" stroke="#ccd2d8" stroke-width="2.2" stroke-linejoin="round" />
<path d="M212.4,368.2L523.6,124.3M236.6,382.1L547.8,138.3M260.8,396.1L572.0,152.3M285.1,410.1L596.3,166.3M309.3,424.1L620.5,180.3M214.1,333.8L359.4,417.8M240.0,313.5L385.4,397.4M266.0,293.2L411.3,377.1M291.9,272.9L437.2,356.8M317.8,252.6L463.2,336.5M343.8,232.2L489.1,316.2M369.7,211.9L515.0,295.8M395.6,191.6L541.0,275.5M421.6,171.3L566.9,255.2M447.5,151.0L592.8,234.9M473.4,130.6L618.8,214.6" stroke="#33507e" stroke-width="0.9" fill="none" opacity="0.85"/>
<polygon points="195.4,358.4 231.8,379.3 525.5,125.4 502.3,112.0" fill="#ffffff" opacity="0.07" />
<polygon points="647.4,195.8 792.8,279.7 481.6,523.6 336.2,439.6" fill="#c0c4ca" />
<polygon points="481.6,528.0 792.8,284.2 792.8,279.7 481.6,523.6" fill="#6a6d70" />
<polygon points="336.2,439.6 481.6,523.6 481.6,528.0 336.2,444.1" fill="#989ca1" />
<polygon points="336.2,439.6 481.6,523.6 792.8,279.7 647.4,195.8" fill="#16305b" stroke="#ccd2d8" stroke-width="2.2" stroke-linejoin="round" />
<path d="M360.4,453.6L671.6,209.8M384.7,467.6L695.9,223.8M408.9,481.6L720.1,237.8M433.1,495.6L744.3,251.7M457.3,509.6L768.5,265.7M362.1,419.3L507.5,503.2M388.1,399.0L533.4,482.9M414.0,378.7L559.4,462.6M439.9,358.4L585.3,442.3M465.9,338.0L611.2,422.0M491.8,317.7L637.2,401.6M517.7,297.4L663.1,381.3M543.7,277.1L689.0,361.0M569.6,256.8L715.0,340.7M595.5,236.4L740.9,320.4M621.5,216.1L766.8,300.0" stroke="#33507e" stroke-width="0.9" fill="none" opacity="0.85"/>
<polygon points="343.5,443.8 379.8,464.8 673.6,210.9 650.3,197.5" fill="#ffffff" opacity="0.07" />
<polygon points="795.4,281.3 940.8,365.2 629.6,609.0 484.2,525.1" fill="#c0c4ca" />
<polygon points="629.6,613.5 940.8,369.6 940.8,365.2 629.6,609.0" fill="#6a6d70" />
<polygon points="484.2,525.1 629.6,609.0 629.6,613.5 484.2,529.5" fill="#989ca1" />
<polygon points="484.2,525.1 629.6,609.0 940.8,365.2 795.4,281.3" fill="#16305b" stroke="#ccd2d8" stroke-width="2.2" stroke-linejoin="round" />
<path d="M508.5,539.1L819.7,295.3M532.7,553.1L843.9,309.2M556.9,567.1L868.1,323.2M581.1,581.1L892.3,337.2M605.4,595.0L916.6,351.2M510.2,504.8L655.5,588.7M536.1,484.5L681.5,568.4M562.0,464.1L707.4,548.1M588.0,443.8L733.3,527.7M613.9,423.5L759.3,507.4M639.8,403.2L785.2,487.1M665.8,382.9L811.1,466.8M691.7,362.5L837.1,446.5M717.6,342.2L863.0,426.1M743.6,321.9L888.9,405.8M769.5,301.6L914.9,385.5" stroke="#33507e" stroke-width="0.9" fill="none" opacity="0.85"/>
<polygon points="491.5,529.3 527.8,550.3 821.6,296.4 798.4,282.9" fill="#ffffff" opacity="0.07" />
<polygon points="943.5,366.7 1088.8,450.7 777.6,694.5 632.3,610.6" fill="#c0c4ca" />
<polygon points="777.6,698.9 1088.8,455.1 1088.8,450.7 777.6,694.5" fill="#6a6d70" />
<polygon points="632.3,610.6 777.6,694.5 777.6,698.9 632.3,615.0" fill="#989ca1" />
<polygon points="632.3,610.6 777.6,694.5 1088.8,450.7 943.5,366.7" fill="#16305b" stroke="#ccd2d8" stroke-width="2.2" stroke-linejoin="round" />
<path d="M656.5,624.6L967.7,380.7M680.7,638.6L991.9,394.7M705.0,652.5L1016.2,408.7M729.2,666.5L1040.4,422.7M753.4,680.5L1064.6,436.7M658.2,590.3L803.6,674.2M684.1,569.9L829.5,653.9M710.1,549.6L855.4,633.5M736.0,529.3L881.4,613.2M761.9,509.0L907.3,592.9M787.9,488.7L933.2,572.6M813.8,468.3L959.2,552.3M839.7,448.0L985.1,531.9M865.7,427.7L1011.0,511.6M891.6,407.4L1037.0,491.3M917.5,387.1L1062.9,471.0" stroke="#33507e" stroke-width="0.9" fill="none" opacity="0.85"/>
<polygon points="639.5,614.8 675.9,635.8 969.6,381.8 946.4,368.4" fill="#ffffff" opacity="0.07" />
<polygon points="1091.5,452.2 1236.9,536.1 925.7,780.0 780.3,696.0" fill="#c0c4ca" />
<polygon points="925.7,784.4 1236.9,540.6 1236.9,536.1 925.7,780.0" fill="#6a6d70" />
<polygon points="780.3,696.0 925.7,780.0 925.7,784.4 780.3,700.5" fill="#989ca1" />
<polygon points="780.3,696.0 925.7,780.0 1236.9,536.1 1091.5,452.2" fill="#16305b" stroke="#ccd2d8" stroke-width="2.2" stroke-linejoin="round" />
<path d="M804.5,710.0L1115.7,466.2M828.8,724.0L1140.0,480.2M853.0,738.0L1164.2,494.2M877.2,752.0L1188.4,508.2M901.4,766.0L1212.6,522.1M806.3,675.7L951.6,759.6M832.2,655.4L977.5,739.3M858.1,635.1L1003.5,719.0M884.1,614.8L1029.4,698.7M910.0,594.4L1055.3,678.4M935.9,574.1L1081.3,658.0M961.9,553.8L1107.2,637.7M987.8,533.5L1133.1,617.4M1013.7,513.2L1159.1,597.1M1039.7,492.8L1185.0,576.8M1065.6,472.5L1210.9,556.4" stroke="#33507e" stroke-width="0.9" fill="none" opacity="0.85"/>
<polygon points="787.6,700.2 823.9,721.2 1117.7,467.3 1094.4,453.9" fill="#ffffff" opacity="0.07" />
<polygon points="278.1,67.7 285.8,72.1 285.8,82.2 278.1,77.7" fill="#34383e" />
<polygon points="285.8,82.2 291.5,78.9 291.5,68.9 285.8,72.1" fill="#24272b" />
<polygon points="283.8,64.4 291.5,68.9 285.8,72.1 278.1,67.7" fill="#3f444b" />
<polygon points="185.6,140.2 193.3,144.6 193.3,154.7 185.6,150.3" fill="#34383e" />
<polygon points="193.3,154.7 198.9,151.4 198.9,141.4 193.3,144.6" fill="#24272b" />
<polygon points="191.2,136.9 198.9,141.4 193.3,144.6 185.6,140.2" fill="#3f444b" />
<polygon points="93.2,212.6 100.9,217.0 100.9,227.1 93.2,222.7" fill="#34383e" />
<polygon points="100.9,227.1 106.5,223.8 106.5,213.8 100.9,217.0" fill="#24272b" />
<polygon points="98.8,209.3 106.5,213.8 100.9,217.0 93.2,212.6" fill="#3f444b" />
<polygon points="427.5,153.9 436.3,159.0 436.3,169.1 427.5,164.0" fill="#34383e" />
<polygon points="433.1,150.6 441.9,155.7 436.3,159.0 427.5,153.9" fill="#3f444b" />
<polygon points="436.3,169.1 441.9,165.8 441.9,155.7 436.3,159.0" fill="#24272b" />
<polygon points="334.9,226.4 343.8,231.5 343.8,241.6 334.9,236.5" fill="#34383e" />
<polygon points="340.6,223.1 349.4,228.2 343.8,231.5 334.9,226.4" fill="#3f444b" />
<polygon points="343.8,241.6 349.4,238.3 349.4,228.2 343.8,231.5" fill="#24272b" />
<polygon points="242.5,298.8 251.4,303.9 251.4,314.0 242.5,308.9" fill="#34383e" />
<polygon points="248.2,295.5 257.0,300.7 251.4,303.9 242.5,298.8" fill="#3f444b" />
<polygon points="251.4,314.0 257.0,310.7 257.0,300.7 251.4,303.9" fill="#24272b" />
<polygon points="575.5,239.4 584.3,244.5 584.3,254.5 575.5,249.4" fill="#34383e" />
<polygon points="581.1,236.1 590.0,241.2 584.3,244.5 575.5,239.4" fill="#3f444b" />
<polygon points="584.3,254.5 590.0,251.3 590.0,241.2 584.3,244.5" fill="#24272b" />
<polygon points="483.0,311.9 491.8,317.0 491.8,327.0 483.0,321.9" fill="#34383e" />
<polygon points="488.6,308.6 497.4,313.7 491.8,317.0 483.0,311.9" fill="#3f444b" />
<polygon points="491.8,327.0 497.4,323.8 497.4,313.7 491.8,317.0" fill="#24272b" />
<polygon points="390.5,384.3 399.4,389.4 399.4,399.4 390.5,394.3" fill="#34383e" />
<polygon points="396.2,381.0 405.0,386.1 399.4,389.4 390.5,384.3" fill="#3f444b" />
<polygon points="399.4,399.4 405.0,396.2 405.0,386.1 399.4,389.4" fill="#24272b" />
<polygon points="723.5,324.8 732.4,329.9 732.4,340.0 723.5,334.9" fill="#34383e" />
<polygon points="729.2,321.6 738.0,326.7 732.4,329.9 723.5,324.8" fill="#3f444b" />
<polygon points="732.4,340.0 738.0,336.7 738.0,326.7 732.4,329.9" fill="#24272b" />
<polygon points="631.0,397.3 639.8,402.4 639.8,412.5 631.0,407.4" fill="#34383e" />
<polygon points="636.6,394.1 645.5,399.2 639.8,402.4 631.0,397.3" fill="#3f444b" />
<polygon points="639.8,412.5 645.5,409.3 645.5,399.2 639.8,402.4" fill="#24272b" />
<polygon points="538.6,469.7 547.4,474.9 547.4,484.9 538.6,479.8" fill="#34383e" />
<polygon points="544.2,466.5 553.1,471.6 547.4,474.9 538.6,469.7" fill="#3f444b" />
<polygon points="547.4,484.9 553.1,481.7 553.1,471.6 547.4,474.9" fill="#24272b" />
<polygon points="871.6,410.3 880.4,415.4 880.4,425.5 871.6,420.4" fill="#34383e" />
<polygon points="877.2,407.0 886.1,412.1 880.4,415.4 871.6,410.3" fill="#3f444b" />
<polygon points="880.4,425.5 886.1,422.2 886.1,412.1 880.4,415.4" fill="#24272b" />
<polygon points="779.0,482.8 787.9,487.9 787.9,498.0 779.0,492.9" fill="#34383e" />
<polygon points="784.7,479.6 793.5,484.7 787.9,487.9 779.0,482.8" fill="#3f444b" />
<polygon points="787.9,498.0 793.5,494.7 793.5,484.7 787.9,487.9" fill="#24272b" />
<polygon points="686.6,555.2 695.5,560.3 695.5,570.4 686.6,565.3" fill="#34383e" />
<polygon points="692.3,552.0 701.1,557.1 695.5,560.3 686.6,555.2" fill="#3f444b" />
<polygon points="695.5,570.4 701.1,567.1 701.1,557.1 695.5,560.3" fill="#24272b" />
<polygon points="1019.6,495.8 1028.5,500.9 1028.5,510.9 1019.6,505.8" fill="#34383e" />
<polygon points="1025.3,492.5 1034.1,497.6 1028.5,500.9 1019.6,495.8" fill="#3f444b" />
<polygon points="1028.5,510.9 1034.1,507.7 1034.1,497.6 1028.5,500.9" fill="#24272b" />
<polygon points="927.1,568.3 935.9,573.4 935.9,583.4 927.1,578.3" fill="#34383e" />
<polygon points="932.7,565.0 941.6,570.1 935.9,573.4 927.1,568.3" fill="#3f444b" />
<polygon points="935.9,583.4 941.6,580.2 941.6,570.1 935.9,573.4" fill="#24272b" />
<polygon points="834.7,640.7 843.5,645.8 843.5,655.9 834.7,650.7" fill="#34383e" />
<polygon points="840.3,637.4 849.1,642.5 843.5,645.8 834.7,640.7" fill="#3f444b" />
<polygon points="843.5,655.9 849.1,652.6 849.1,642.5 843.5,645.8" fill="#24272b" />
<polygon points="1170.1,582.6 1177.8,587.1 1177.8,597.1 1170.1,592.7" fill="#34383e" />
<polygon points="1177.8,597.1 1183.4,593.9 1183.4,583.8 1177.8,587.1" fill="#24272b" />
<polygon points="1175.7,579.4 1183.4,583.8 1177.8,587.1 1170.1,582.6" fill="#3f444b" />
<polygon points="1077.6,655.2 1085.2,659.6 1085.2,669.7 1077.6,665.2" fill="#34383e" />
<polygon points="1085.2,669.7 1090.9,666.4 1090.9,656.3 1085.2,659.6" fill="#24272b" />
<polygon points="1083.2,651.9 1090.9,656.3 1085.2,659.6 1077.6,655.2" fill="#3f444b" />
<polygon points="985.1,727.6 992.8,732.0 992.8,742.1 985.1,737.6" fill="#34383e" />
<polygon points="992.8,742.1 998.5,738.8 998.5,728.7 992.8,732.0" fill="#24272b" />
<polygon points="990.8,724.3 998.5,728.7 992.8,732.0 985.1,727.6" fill="#3f444b" />
<g fill="#6f7a86"><circle cx="1117" cy="614" r="17"/><path d="M1097,873 L1100,713 Q1117,666 1133,713 L1136,873 L1123,873 L1117,783 L1110,873 Z"/></g>
<text x="1390" y="52" text-anchor="end" font-family="Helvetica,Arial" font-size="30" font-weight="bold" fill="#1a2733">GM650 CYCLONE GROUND MOUNT — 6-PANEL BUNDLE</text>
<text x="1390" y="80" text-anchor="end" font-family="Helvetica,Arial" font-size="17" fill="#51606d">6 × JA Solar JAM72S42-LR 650 W · 7 trestles · 3 rail lines · 10° tilt, facing north · row 6.9 m · 3.9 kW</text>
</svg>